<svg xmlns="http://www.w3.org/2000/svg" width="144" height="144" viewBox="0 0 144 144">
  <defs>
    <linearGradient id="bg" x1="0" y1="0" x2="0" y2="1">
      <stop offset="0" stop-color="#1E293B"/>
      <stop offset="1" stop-color="#0B1220"/>
    </linearGradient>
  </defs>
  <rect width="144" height="144" fill="url(#bg)"/>
  <rect x="14" y="40" width="116" height="64" rx="10" fill="#070B14" stroke="#334155" stroke-width="2"/>
  <circle cx="30" cy="51" r="3.5" fill="#22C55E"/><circle cx="42" cy="51" r="3.5" fill="#1E293B"/><circle cx="54" cy="51" r="3.5" fill="#1E293B"/><circle cx="66" cy="51" r="3.5" fill="#1E293B"/><circle cx="78" cy="51" r="3.5" fill="#1E293B"/><circle cx="90" cy="51" r="3.5" fill="#1E293B"/><circle cx="102" cy="51" r="3.5" fill="#1E293B"/><circle cx="114" cy="51" r="3.5" fill="#1E293B"/>
  <circle cx="30" cy="63" r="3.5" fill="#1E293B"/><circle cx="42" cy="63" r="3.5" fill="#F59E0B"/><circle cx="54" cy="63" r="3.5" fill="#F59E0B"/><circle cx="66" cy="63" r="3.5" fill="#1E293B"/><circle cx="78" cy="63" r="3.5" fill="#1E293B"/><circle cx="90" cy="63" r="3.5" fill="#F59E0B"/><circle cx="102" cy="63" r="3.5" fill="#F59E0B"/><circle cx="114" cy="63" r="3.5" fill="#1E293B"/>
  <circle cx="30" cy="75" r="3.5" fill="#1E293B"/><circle cx="42" cy="75" r="3.5" fill="#F59E0B"/><circle cx="54" cy="75" r="3.5" fill="#1E293B"/><circle cx="66" cy="75" r="3.5" fill="#1E293B"/><circle cx="78" cy="75" r="3.5" fill="#1E293B"/><circle cx="90" cy="75" r="3.5" fill="#1E293B"/><circle cx="102" cy="75" r="3.5" fill="#F59E0B"/><circle cx="114" cy="75" r="3.5" fill="#1E293B"/>
  <circle cx="30" cy="87" r="3.5" fill="#1E293B"/><circle cx="42" cy="87" r="3.5" fill="#1E293B"/><circle cx="54" cy="87" r="3.5" fill="#F59E0B"/><circle cx="66" cy="87" r="3.5" fill="#F59E0B"/><circle cx="78" cy="87" r="3.5" fill="#F59E0B"/><circle cx="90" cy="87" r="3.5" fill="#F59E0B"/><circle cx="102" cy="87" r="3.5" fill="#1E293B"/><circle cx="114" cy="87" r="3.5" fill="#1E293B"/>
  </svg>
